<?xml version="1.0" encoding="UTF-8"?><svg id="Layer_1" xmlns="http://www.w3.org/2000/svg" viewBox="0 0 189.89 176.2"><defs><style>.cls-1{fill:#fff;}</style></defs><path class="cls-1" d="M152.31,73.29c2.72-2.35,37.32-28.81,37.32-28.81,0,0,.94-1.24-.81-1.75-1.75-.5-30.33-10.19-30.33-10.19,0,0-2.66-.44-.64-3.53,1.94-2.98,13.97-26.1,14.87-27.84,.04-.07,.06-.14,.06-.22v-.21c.04-.36-.28-.66-.64-.6l-58.2,8.99-.14,.03c-.48,.14-3.53,1-6.86,.79-3.63-.24-38.83-9.75-38.83-9.75,0,0-1.92-.57-3.9,.24-1.98,.81-24.88,11.2-24.88,11.2,0,0-1.92,1.04-4.37,1.24-2.22,.18-27.09,5.44-31.78,6.43-.45,.1-.78,.48-.82,.94L0,52.56c-.01,.2,.03,.4,.13,.58l9.49,17.33c.12,.21,.3,.38,.53,.47l25.54,10.1c.3,.12,.52,.36,.61,.67l28.34,94.09c.07,.24,.29,.41,.55,.41h.19c.31,0,.57-.25,.57-.56l.02-1.34c-.01-.1-.02-.19-.03-.28-.63-2.34-9.06-34.14-7.88-49.5-.01-.13-.03-.25-.04-.38l-14.52-46.83-.04-.11c-.17-.38-1.29-2.52-4.71-3.71-3.46-1.21-20.87-7.85-23.63-8.9-.24-.09-.44-.27-.55-.5l-6.74-13.23-.11-.56,1.96-23.93c.04-.47,.39-.85,.85-.94l26.05-4.9s3.83-.61,6.66-2.05c2.82-1.45,22.66-10.12,22.66-10.12,0,0,1.45-.77,2.59,.03,1.1,.77,36.4,9.05,39.19,9.71l.33,.14,18.97,12.34,.23,.11,39.26,13.35c.93,.31,.95,1.62,.03,1.96l-18.57,7.05-.41,.28-9.78,10.89c-.23,.26-.32,.62-.23,.96l3.15,12.11c.05,.1,.09,.2,.13,.3,.56,.85,3.59,5.37,6.87,7.49,3.63,2.35,11.16,6.79,13.72,9.04,2.16,1.9,10.53,8.85,13.1,10.98,.42,.35,1.05,.31,1.42-.09h0c.38-.41,.37-1.04-.02-1.44l-24.74-25.36-.22-.33c-.27-.64-.85-2.65,1.41-4.6Zm-.28-49.58l-1.75,4.96c-.22,.63-.9,.92-1.51,.65l-.77-.35c-.61-.27-.74-.9-.28-1.39l3.88-4.14c.46-.49,.65-.37,.43,.26Zm3.21-12.27l-11.94,13.32c-.89,1-2.68,1.5-3.96,1.11,0,0-8.43-2.53-10.34-3.47s-7.76-5.5-7.76-5.5c-1.06-.82-.84-1.66,.49-1.87l32.74-5.04c1.32-.2,1.68,.45,.78,1.44Zm-9.09,56.21c-.06,.05-.1,.12-.11,.2l-.15,1.91c0,.08-.05,.15-.11,.2l-1,.71c-.13,.1-.32,.06-.41-.08l-2.8-4.58c-.07-.11-.05-.25,.04-.34l9.4-8.98s.08-.06,.12-.07l13.01-3.51c.3-.08,.49,.3,.25,.48l-18.25,14.06Z"/></svg>